HIERARCHY
ROOT root
{
	OFFSET 0.000000 0.000000 0.000000
	CHANNELS 6 Xposition Yposition Zposition Zrotation Yrotation Xrotation
	JOINT lhip
	{
		OFFSET 0.058581 -0.082280 -0.017664
		CHANNELS 3 Zrotation Yrotation Xrotation
		JOINT lknee
		{
			OFFSET 0.043451 -0.386469 0.008037
			CHANNELS 3 Zrotation Yrotation Xrotation
			JOINT lankle
			{
				OFFSET -0.014790 -0.426874 -0.037428
				CHANNELS 3 Zrotation Yrotation Xrotation
				JOINT ltoe
				{
					OFFSET 0.041054 -0.060286 0.122042
					CHANNELS 3 Zrotation Yrotation Xrotation
					End Site
					{
						OFFSET 0.000000 0.000000 0.000000
					}
				}
			}
		}
	}
	JOINT rhip
	{
		OFFSET -0.060310 -0.090513 -0.013543
		CHANNELS 3 Zrotation Yrotation Xrotation
		JOINT rknee
		{
			OFFSET -0.043257 -0.383688 -0.004843
			CHANNELS 3 Zrotation Yrotation Xrotation
			JOINT rankle
			{
				OFFSET 0.019056 -0.420046 -0.034562
				CHANNELS 3 Zrotation Yrotation Xrotation
				JOINT rtoe
				{
					OFFSET -0.034840 -0.062106 0.130323
					CHANNELS 3 Zrotation Yrotation Xrotation
					End Site
					{
						OFFSET 0.000000 0.000000 0.000000
					}
				}
			}
		}
	}
	JOINT lowerback
	{
		OFFSET 0.004439 0.124404 -0.038385
		CHANNELS 3 Zrotation Yrotation Xrotation
		JOINT upperback
		{
			OFFSET 0.004488 0.137956 0.026820
			CHANNELS 3 Zrotation Yrotation Xrotation
			JOINT chest
			{
				OFFSET -0.002265 0.056032 0.002855
				CHANNELS 3 Zrotation Yrotation Xrotation
				JOINT lowerneck
				{
					OFFSET -0.013390 0.211636 -0.033468
					CHANNELS 3 Zrotation Yrotation Xrotation
					JOINT upperneck
					{
						OFFSET 0.010113 0.088937 0.050410
						CHANNELS 3 Zrotation Yrotation Xrotation
						End Site
						{
							OFFSET 0.000000 0.000000 0.000000
						}
					}
				}
				JOINT lclavicle
				{
					OFFSET 0.071702 0.114000 -0.018898
					CHANNELS 3 Zrotation Yrotation Xrotation
					JOINT lshoulder
					{
						OFFSET 0.122921 0.045205 -0.019046
						CHANNELS 3 Zrotation Yrotation Xrotation
						JOINT lelbow
						{
							OFFSET 0.255332 -0.015649 -0.022946
							CHANNELS 3 Zrotation Yrotation Xrotation
							JOINT lwrist
							{
								OFFSET 0.265709 0.012698 -0.007375
								CHANNELS 3 Zrotation Yrotation Xrotation
								End Site
								{
									OFFSET 0.000000 0.000000 0.000000
								}
							}
						}
					}
				}
				JOINT rclavicle
				{
					OFFSET -0.082954 0.112472 -0.023707
					CHANNELS 3 Zrotation Yrotation Xrotation
					JOINT rshoulder
					{
						OFFSET -0.113228 0.046853 -0.008472
						CHANNELS 3 Zrotation Yrotation Xrotation
						JOINT relbow
						{
							OFFSET -0.260127 -0.014369 -0.031269
							CHANNELS 3 Zrotation Yrotation Xrotation
							JOINT rwrist
							{
								OFFSET -0.269108 0.006794 -0.006027
								CHANNELS 3 Zrotation Yrotation Xrotation
								End Site
								{
									OFFSET 0.000000 0.000000 0.000000
								}
							}
						}
					}
				}
			}
		}
	}
}
MOTION
Frames: 16
Frame Time: 0.033333
0.698874 0.198763 1.191285 6.294385 -0.563758 85.386034 -2.192916 -1.247761 7.172994 -1.622444 -12.511856 4.612173 2.756985 6.127662 -11.494875 0.000000 -0.000000 0.000000 2.522171 -3.887303 3.639899 0.730011 -3.400153 12.708988 0.925451 -8.468485 -13.135151 0.000000 -0.000000 0.000000 1.791480 1.158816 9.973294 0.637086 0.418485 0.764299 0.831318 0.747264 0.530225 -1.197665 8.140549 -6.106291 -4.123330 3.397622 9.995325 -28.671386 2.507294 2.233877 -59.366295 -4.987809 9.755372 8.706478 -25.972384 6.771539 -4.104169 -4.667319 -6.760469 29.129574 4.602560 4.248229 56.139744 7.244699 13.909912 -12.509422 19.337408 -6.465594 4.671517 3.848756 -6.557746 
0.698551 0.198983 1.191284 6.532862 -0.591459 85.484740 -2.236421 -1.397570 7.096923 -1.581140 -12.707183 4.514937 2.822278 6.113548 -11.437151 0.000000 -0.000000 0.000000 2.685560 -3.722339 3.609857 0.491961 -3.390605 12.549128 0.811730 -8.946011 -13.339840 0.000000 -0.000000 0.000000 1.580835 1.096919 9.870527 0.683932 0.385081 0.779353 0.875915 0.718327 0.627406 -1.130169 8.152497 -6.251678 -4.101238 3.247236 10.053380 -28.635086 2.592037 2.198667 -59.465268 -5.140190 9.899753 8.799778 -25.924142 6.908357 -3.981714 -4.643816 -6.686437 29.136329 4.551197 4.112160 56.335108 7.248917 14.133848 -12.594099 19.273841 -6.246494 4.699242 3.803525 -6.470242 
0.699311 0.199579 1.191230 6.476843 -0.590124 85.535394 -2.364894 -1.337050 7.042539 -1.403147 -12.634535 4.410155 2.863197 6.125847 -11.298525 0.000000 -0.000000 0.000000 2.530755 -3.607349 3.433831 0.665641 -3.467960 12.685222 1.004949 -8.726319 -13.199093 0.000000 -0.000000 0.000000 1.839227 1.046061 9.942093 0.575232 0.447826 0.815706 0.681023 0.708770 0.596833 -1.134453 8.099639 -6.324339 -4.045906 3.112563 10.030142 -28.789066 2.557401 2.066541 -59.298195 -5.128716 9.939276 8.767396 -25.935753 6.696347 -4.023820 -4.837189 -6.752512 29.090224 4.638295 4.234656 56.489369 7.325804 14.193859 -12.697355 19.344825 -6.340977 4.534964 3.796327 -6.280906 
0.699370 0.200318 1.191157 6.804438 -0.524901 85.592893 -2.228683 -1.303423 6.891519 -1.506590 -12.551631 4.390174 2.764696 5.960914 -11.248774 0.000000 -0.000000 0.000000 2.606755 -3.690869 3.308604 0.644850 -3.560110 12.731710 0.814462 -8.821134 -13.145959 0.000000 -0.000000 0.000000 1.784220 0.995522 10.024921 0.621389 0.297161 0.955503 0.684492 0.635394 0.518233 -0.880981 7.761196 -6.415001 -3.885539 2.843249 10.012506 -28.875584 2.365326 2.165800 -59.193146 -5.307127 9.896052 8.702270 -25.960534 6.565582 -4.241808 -4.806553 -6.855073 29.128591 4.653888 4.155547 56.483933 7.238589 14.143057 -12.683438 19.610004 -6.642390 4.710228 3.774821 -6.525052 
0.699162 0.201357 1.191365 6.773272 -0.500785 85.613346 -2.242613 -1.239248 6.838755 -1.423983 -12.474062 4.307252 2.883809 6.024292 -11.142664 0.000000 -0.000000 0.000000 2.666404 -3.484641 3.105765 0.636928 -3.655946 12.942754 0.939705 -8.869909 -13.106314 0.000000 -0.000000 0.000000 1.612502 0.933266 10.330056 0.686952 0.368135 0.750142 0.782808 0.547194 0.547895 -0.721696 7.438495 -6.281975 -3.725570 2.627109 9.893808 -28.958297 2.330193 2.096551 -59.209590 -5.344505 9.868573 8.835510 -25.906651 6.406841 -4.270287 -4.830432 -6.786462 29.017853 4.758078 4.057289 56.655218 7.145131 14.214856 -12.830085 19.727594 -6.704057 4.693098 4.000957 -6.621830 
0.698938 0.202626 1.191246 6.768629 -0.400193 85.648811 -2.108284 -1.249818 6.618620 -1.554680 -12.297946 4.507360 2.806622 6.040820 -11.072496 0.000000 -0.000000 0.000000 2.907871 -3.404927 2.770654 0.410610 -3.742499 13.336272 0.949161 -9.003726 -13.238791 0.000000 -0.000000 0.000000 1.433326 0.972997 10.504583 0.781549 0.332038 0.732051 0.859190 0.546859 0.791123 -0.289908 7.098770 -6.505998 -3.549191 2.165435 10.021319 -28.644188 2.222801 2.057936 -59.576337 -5.613707 10.018434 8.906795 -25.926917 6.452185 -4.268917 -4.942725 -6.805437 29.111429 4.489135 3.715011 56.589079 7.084038 14.331078 -13.049455 20.309401 -6.610468 4.795872 3.962438 -6.594643 
0.699341 0.204429 1.191069 6.412396 -0.351972 85.732837 -2.200655 -1.224213 6.506243 -1.365471 -12.098098 4.405865 2.797361 6.237235 -11.010623 0.000000 -0.000000 0.000000 2.883504 -3.248305 2.341128 0.421421 -3.712219 13.751376 1.017100 -8.887224 -13.224402 0.000000 -0.000000 0.000000 1.342888 0.975822 10.590072 0.857268 0.293185 0.866047 0.899366 0.599415 0.890966 0.107487 6.600002 -6.388191 -3.224083 1.412565 10.228218 -28.618023 2.014349 2.264739 -59.733307 -5.838907 10.049224 9.110371 -26.009504 6.134088 -4.255417 -4.793265 -6.792750 29.095245 4.534809 3.630333 56.524049 7.066075 14.153967 -13.252345 20.825806 -6.725008 4.838944 3.914351 -6.638553 
0.699533 0.206113 1.191328 5.966220 -0.285876 85.673906 -2.135414 -0.880751 6.455456 -1.485582 -11.771388 4.492606 2.687443 6.303035 -10.709669 0.000000 -0.000000 0.000000 2.948698 -3.203222 2.024398 0.288021 -3.677560 14.150405 1.079806 -8.587375 -13.123599 0.000000 -0.000000 0.000000 1.255912 0.939759 10.901201 1.056541 0.228593 0.965539 1.003173 0.284701 0.886468 0.336914 6.107335 -5.889709 -3.215634 0.936073 10.309529 -28.928975 2.159017 2.144896 -59.446926 -5.725705 10.007528 8.935763 -26.369515 6.002963 -4.389986 -4.935451 -7.033399 28.722729 4.819464 3.854075 56.603415 7.365571 14.203471 -13.346227 21.111164 -7.133296 4.630899 4.183122 -6.930737 
0.700385 0.207904 1.191768 5.254766 -0.263487 85.509972 -2.251804 -0.714612 6.722622 -1.386469 -11.650908 4.182916 2.742690 6.657729 -10.628520 0.000000 -0.000000 0.000000 2.878644 -3.056391 1.859274 0.296919 -3.260353 14.491993 1.146330 -8.439181 -13.105566 0.000000 -0.000000 0.000000 1.190530 0.835593 11.320875 1.124570 0.157981 1.171161 1.012343 0.251901 0.857887 0.744887 5.493597 -5.321379 -3.003243 0.260237 10.475064 -29.038887 2.068493 2.188949 -59.295306 -5.629514 9.957036 8.901417 -26.739922 5.902663 -3.968929 -4.885523 -7.163696 28.871121 4.957055 3.921965 56.329296 7.517870 14.431150 -13.473391 21.651132 -6.364615 3.520485 3.790061 -5.763096 
0.702363 0.209965 1.191782 4.040012 -0.326305 85.339100 -2.574497 0.079778 6.898161 -1.202021 -11.135489 4.051020 2.968352 6.768402 -10.572210 0.000000 -0.000000 0.000000 2.349920 -3.164530 1.531664 0.530740 -3.108777 15.130539 1.428954 -7.283725 -13.077748 0.000000 -0.000000 0.000000 1.366646 0.840090 11.492185 1.157966 -0.050528 1.777742 0.725397 0.215457 0.905805 1.313949 4.606198 -4.709003 -2.669683 -0.745928 10.676008 -29.175268 2.079390 2.234078 -59.237577 -5.786015 9.941245 8.999772 -26.733019 5.307510 -4.118028 -4.783051 -6.825143 28.810043 5.044645 3.721488 56.139819 7.908427 14.107290 -13.691221 22.284838 -7.592574 4.453512 3.595413 -6.244406 
0.702190 0.213763 1.191765 3.130563 -0.091663 85.799831 -2.355251 -0.194046 6.037739 -1.371344 -10.397765 4.312817 3.113547 7.228006 -10.412547 0.000000 -0.000000 0.000000 2.900085 -2.260005 0.546550 0.225150 -2.705674 15.458488 1.283276 -7.599390 -12.936536 0.000000 -0.000000 0.000000 1.143809 0.536311 11.556408 1.457231 -0.090617 1.507746 0.840758 0.214272 1.138242 1.964868 3.807881 -4.133221 -2.533683 -1.639031 11.082497 -28.990870 2.098275 2.257515 -59.398912 -5.857733 10.127235 9.191935 -26.648066 5.946967 -5.266864 -4.640248 -5.780094 28.472071 5.139773 3.643110 56.353030 8.143876 13.994351 -14.211960 22.596659 -7.956788 4.957872 3.894242 -6.949757 
0.703697 0.216391 1.191922 1.782352 0.018059 85.766110 -2.481854 0.156094 6.092581 -1.160904 -9.764970 4.061704 3.156513 7.535760 -10.296158 0.000000 -0.000000 0.000000 2.751419 -2.056310 0.013676 0.382620 -2.397733 16.030392 1.423065 -6.806035 -12.912489 0.000000 -0.000000 0.000000 1.369809 0.739571 11.997566 1.481003 -0.022233 1.335317 0.729116 -0.068388 1.357687 2.731117 2.966384 -3.527219 -2.310275 -2.447663 11.571556 -28.985601 2.100444 2.469720 -59.366904 -6.064017 10.160329 9.211921 -26.354897 5.558856 -5.583106 -5.014458 -5.507785 28.520253 4.998915 3.232829 56.258921 8.361631 14.014106 -14.240978 22.732362 -8.363465 4.798685 4.118295 -6.478647 
0.704636 0.220009 1.191832 0.547397 0.156659 85.913563 -2.400546 0.371149 5.697232 -1.280626 -9.122709 4.159918 3.351072 7.931021 -10.095818 0.000000 -0.000000 0.000000 2.941147 -1.685242 -0.728658 0.247059 -1.896725 16.468164 1.349302 -6.783346 -12.985957 0.000000 -0.000000 0.000000 1.252162 0.002025 12.268256 1.702789 -0.372914 1.616485 0.690261 0.387114 1.271990 2.995661 2.129661 -3.244429 -2.067914 -3.335685 12.109222 -28.997899 2.180105 2.612515 -59.157970 -5.908965 10.145193 8.865028 -26.769490 5.461785 -5.625741 -4.739294 -5.022402 28.416824 5.269131 3.234465 56.062287 8.509855 13.970292 -14.267427 23.448469 -8.395911 4.834096 3.895556 -6.228430 
0.706217 0.223314 1.191615 -0.756094 0.340165 86.150089 -2.256737 0.455993 5.437887 -1.370899 -8.793853 3.941663 3.466176 8.216209 -10.214605 0.000000 -0.000000 0.000000 3.022905 -1.300161 -1.538131 0.305810 -1.496340 17.052520 1.218340 -6.654102 -13.167365 0.000000 -0.000000 0.000000 1.179209 -0.161011 12.357900 1.972868 -0.439006 1.526103 0.834692 0.087483 1.485927 3.403180 1.466853 -2.464420 -2.051430 -4.035192 12.327973 -29.066374 2.171528 2.765107 -59.379609 -5.985006 10.237105 9.016890 -26.454227 5.389618 -5.229145 -4.823028 -5.160427 28.063531 5.211681 3.077306 56.267941 8.884188 14.138124 -14.567913 23.391786 -8.532715 4.599908 4.015361 -6.408336 
0.707480 0.226190 1.191280 -1.690989 0.400896 86.363258 -2.114174 0.612376 5.041292 -1.662585 -8.462953 3.988107 3.738496 8.311542 -10.112592 0.000000 -0.000000 0.000000 2.962117 -1.054694 -2.431885 0.435816 -1.212729 17.752008 1.323048 -6.484535 -13.365240 0.000000 -0.000000 0.000000 0.837328 -0.307650 12.404927 2.354439 -0.737744 1.609002 0.975396 -0.283535 1.440725 3.457186 0.687215 -1.872758 -1.938781 -4.905108 12.741270 -28.884151 2.061404 3.181153 -59.607778 -6.001138 10.371684 9.130182 -26.569677 5.235872 -5.040447 -4.751992 -5.518054 28.022384 5.319740 3.138724 56.272202 9.016623 13.961018 -14.855364 23.393833 -8.889840 4.550131 3.981347 -6.816174 
0.708808 0.228558 1.190818 -2.579334 0.484586 86.324106 -1.903251 1.107421 4.915923 -1.999577 -8.025076 3.970806 3.571446 8.205256 -9.954629 0.000000 -0.000000 0.000000 2.976789 -0.802242 -2.961826 0.460279 -0.964644 18.411369 1.259679 -6.293211 -13.611338 0.000000 -0.000000 0.000000 0.504860 -0.634672 12.829145 2.688470 -1.032102 1.457239 1.129672 -0.407782 1.529552 3.841799 0.313499 -1.560513 -1.989036 -5.712492 13.583607 -28.734764 2.127674 3.390571 -59.616426 -6.190041 10.385876 8.762371 -26.613125 5.461652 -4.942832 -4.586427 -5.868899 28.110330 5.003548 2.721553 56.046770 9.050680 13.977075 -14.743924 23.364576 -8.586777 4.191607 3.739536 -6.742684 
